<svg viewBox="0 0 1024 1024" xmlns="http://www.w3.org/2000/svg"><path id="path1" fill="#fcfcfc" fill-rule="evenodd" stroke="none" d="M 111 814 C 111 868.676208 155.323807 913 210 913 L 814 913 C 868.676208 913 913 868.676208 913 814 L 913 210 C 913 155.323792 868.676208 111 814 111 L 210 111 C 155.323807 111 111 155.323792 111 210 Z"/><path id="path2" fill="#8185bd" fill-rule="evenodd" stroke="none" d="M 373.192291 201.589783 L 244.182465 178.841919 L 147.807724 725.410156 L 276.817535 748.158081 Z"/><path id="--2" fill="#8185bd" fill-rule="evenodd" stroke="none" d="M 820.192261 332.589783 L 691.182434 309.841919 L 603.723694 805.845093 L 732.733521 828.593018 Z"/><path id="-" fill="#8185bd" fill-rule="evenodd" stroke="none" d="M 598.192261 298.589783 L 469.182465 275.841919 L 382.659302 766.539063 L 511.669128 789.286987 Z"/><path id="path3" fill="#8185bd" fill-rule="evenodd" stroke="none" d="M 607.265625 243.12323 L 244.103348 179.087891 L 227.259476 274.614258 L 590.421753 338.649597 Z"/><path id="--3" fill="#8185bd" fill-rule="evenodd" stroke="none" d="M 885.84845 292.81781 L 547.103394 233.087891 L 530.259521 328.614258 L 869.004578 388.344177 Z"/></svg>
